<svg id="Layer_1" data-name="Layer 1" xmlns="http://www.w3.org/2000/svg" viewBox="0 0 1369.24 1226.5"><defs><style>.cls-1{fill:#705d9a;}.cls-2{fill:#e22058;}.cls-3{fill:#eda926;}</style></defs><title>7</title><path class="cls-1" d="M65,788.27c1.43-4.94,1.38-10.08,1.71-15.12a256.91,256.91,0,0,1,15.8-74.73c17-44.86,45.67-80.64,84.52-108.45,31.17-22.32,65.74-37.34,102.62-47.27a396.65,396.65,0,0,1,65.44-11.81c11.94-1.15,23.89-1.91,35.89-2,2.18,0,4.37,0,6.34,0,.8-2.09-.24-3.1-.74-4.18A494.73,494.73,0,0,1,337.77,402.2a346.88,346.88,0,0,1-5.59-61c0-36,7.69-70.4,21.9-103.37,13.33-30.91,31.77-58.34,56.34-81.48C440.48,128,476,110,516.22,101.24a264.24,264.24,0,0,1,60.93-5.85c29.35.54,57.2,7.54,83.82,19.72,31.59,14.46,59.22,34.68,84.44,58.36,35.92,33.73,65.53,72.51,91.24,114.4C843.09,298.36,849.24,309,854.8,320c.41.81.6,1.84,1.6,2.3,1.17,0,1.52-1,2.1-1.71,28.37-33.21,61.94-60,100.13-81a319.26,319.26,0,0,1,94.66-34.31,314.6,314.6,0,0,1,81.11-4.61c25.5,1.78,50.41,6.38,74.29,15.55,71.77,27.54,116.42,79.18,135.18,153.46,6.08,24.07,7.59,48.63,5.6,73.31-3,37.73-14.65,72.83-33.64,105.51-18.76,32.27-42.83,60-71.43,84-1.06.88-2.49,1.47-2.94,3,1.26,1.44,3.13,1.51,4.74,2.09,42.92,15.33,82,37.28,115.78,68.07,29.88,27.24,52.12,59.53,63.91,98.56A187.06,187.06,0,0,1,1434,870c-.8,13.08-3.58,25.93-6.62,38.68-7.88,33-20,64.35-38.13,93.17-23.88,37.92-55.62,66.95-96.81,85.19a234.9,234.9,0,0,1-58.74,17,370.27,370.27,0,0,1-201.23-26.29,327.8,327.8,0,0,1-82.68-51.59,18.92,18.92,0,0,0-1.94-1.38c-.09-.07-.29,0-.73.08-.38,4.31-.75,8.69-1.17,13.07-5.29,55.45-19,108.48-45.54,157.78-17.71,33-40.79,61.48-71.25,83.62-28.18,20.48-59.65,33-93.93,38.77a203.27,203.27,0,0,1-24.24,2.94,2.47,2.47,0,0,0-2.14.79H669.47c-4-1.23-8.19-.45-12.3-.85-40.61-3.93-75.55-20-105.19-48-26.79-25.38-44-56.55-56.57-90.73-11.93-32.48-18.27-66.2-21.82-100.5a500.6,500.6,0,0,1-2.11-59.37c.09-5.73,0-5.75-5.59-4.29a617.19,617.19,0,0,1-93.81,17c-10.95,1.11-22,1.87-33,2-26.1.41-51.52-4.29-76.54-11.4-33.45-9.51-65-23.4-93.93-42.69-30.47-20.29-56.21-45.32-74.77-77.18a207.11,207.11,0,0,1-27.74-86c-.61-6.62-.1-13.34-1.09-20Z" transform="translate(-65.04 -95.34)"/><path class="cls-2" d="M523.5,1036.7a465.34,465.34,0,0,1,1.86-46.93c1.68-17.84-9.28-30.44-22.79-33.86a30.15,30.15,0,0,0-17.46.74c-16,5.46-32.22,10.33-48.65,14.46a413.58,413.58,0,0,1-59.75,10.82,270.61,270.61,0,0,1-49.79.24c-40.15-3.34-78.87-12.1-114.88-30.75-28.67-14.84-52.56-35.1-69.34-63.07a164.7,164.7,0,0,1-21.17-59.17,216.84,216.84,0,0,1-2.6-43.47c2.22-54.38,21.73-101,62.48-138,18-16.35,38.52-29,60.66-39,26.95-12.21,55.23-19.9,84.34-24.62,13.86-2.24,27.85-3.52,41.89-4.37,14.87-.9,29.73-.89,44.58-.41a32.62,32.62,0,0,0,32.44-25.87,31.17,31.17,0,0,0-3.81-23.08,476.17,476.17,0,0,1-31.65-61.82,358.17,358.17,0,0,1-23.25-78.35A254.51,254.51,0,0,1,383.74,331c1.91-30.9,8.66-60.68,22.8-88.44,23.14-45.42,59.71-74.07,109-86.61,14.12-3.6,28.5-5.25,43.05-6.21a180.54,180.54,0,0,1,76.59,11.44c24,9.06,45.54,22.41,65.33,38.61,33.76,27.64,60.83,61.06,83.94,97.85A458.08,458.08,0,0,1,821.67,370c3.83,9.5,10.36,16.07,20.21,19,13,3.81,26.13-1.14,33.92-12.7a282.67,282.67,0,0,1,43.11-50c38.36-35.34,83-58.66,134-69.59a266.89,266.89,0,0,1,44.07-6c2.86-.13,5.72-.47,8.59-.65,18.72-1.18,36.92,2.1,54.93,6.63,24.83,6.23,48.26,15.78,69.48,30.31,34.36,23.52,55.79,55.67,63.81,96.57,3.84,19.58,3.92,39.36,2.44,59.2a223.22,223.22,0,0,1-11.72,57.54C1267.84,548,1237.07,584.06,1194,610c-5.63,3.38-11.46,6.37-17.37,9.19A29,29,0,0,0,1159.92,648c1.12,12.48,10,22.48,22.73,25.31,20,4.45,39.69,9.7,58.83,17,28.26,10.82,54.66,24.88,77.78,44.64,30.21,25.84,49.89,57.93,57,97.26a194.51,194.51,0,0,1,2.52,47.25c-1.08,17-3.54,33.65-8.54,49.9-12.66,41.09-37.89,72.34-74.46,94.61-25,15.22-52.2,24.58-80.82,30.09-16.19,3.11-32.52,5.25-49,4.54A317.81,317.81,0,0,1,1053.1,1033a279.18,279.18,0,0,1-90.16-61.42,253.43,253.43,0,0,1-20.72-23.91c-5.81-7.63-13.45-11.71-23.09-11.45a26.91,26.91,0,0,0-26,26.75c0,6.86.74,13.71,1.16,20.57a477.93,477.93,0,0,1,0,55.11c-.65,11.81-1.6,23.58-3.21,35.29-4.6,33.59-12.87,66.12-28.48,96.45-14.47,28.1-34.14,51.64-61,68.73-19.12,12.15-40,19.91-62.14,24.17a221.47,221.47,0,0,1-42.84,4.09c-3.5,0-7,.62-10.51.66-55.14.63-97.23-22.77-126.54-69.25-13.53-21.47-21.7-45.14-27.17-69.77a375.25,375.25,0,0,1-8.08-60.21C523.7,1058.1,523.65,1047.41,523.5,1036.7Z" transform="translate(-65.04 -95.34)"/><path class="cls-1" d="M759.56,783.66c-36.15-.4-67.41-12.77-92.82-38.81-17.58-18-28.64-39.51-31.91-64.58-5.41-41.63,8.1-76.46,39-104.49a119.24,119.24,0,0,1,68.32-30.91c49.92-5.41,91.18,11.07,121.64,51.72A106.23,106.23,0,0,1,884.55,650c4.29,40.83-9.5,74.71-39.78,102-18.54,16.7-40.59,26.31-65.11,30.3A105.41,105.41,0,0,1,759.56,783.66Z" transform="translate(-65.04 -95.34)"/><path class="cls-3" d="M663.53,654c1.6-32.38,20.05-60.73,55.24-77.31,38.65-18.21,85.24-8.79,114.1,23,31.17,34.28,31.61,85.88.88,121.16-41.71,47.87-120,42.86-155.12-10C668.54,695.65,663.46,678.92,663.53,654Z" transform="translate(-65.04 -95.34)"/></svg>