<svg id="Layer_1" data-name="Layer 1" xmlns="http://www.w3.org/2000/svg" viewBox="0 0 1117.01 1321.11"><title>2</title><path d="M1324.89,682c-5.21,7.41-8.47,8.43-16.82,4.74-31.25-13.77-64.12-21.52-97.73-26.65-3.48-.53-5.08,0-5.75,4.22-3.52,22.52-8.95,44.6-17.47,65.81-1.4,3.48-.75,4.69,2.74,5.94a451.75,451.75,0,0,1,81.27,38.71c3.38,2,6.45,4.2,7,8.5.5,4.13-.64,7.66-4.19,10s-7.57,2.28-11.29,0q-13.42-8.16-27.36-15.42A451.44,451.44,0,0,0,1181,754.2c-1.56-.57-3.39-2.32-4.9.72-11.73,23.59-27.57,44.26-45.86,63.5a555.25,555.25,0,0,1,48.57,33.36c10.64,8.28,21,17,30.78,26.2,5.22,4.92,5.79,10.86,1.59,15.37s-10.06,4.45-15.41-.57c-23.66-22.16-49.75-41.06-77.44-57.82-2.12-1.28-3.6-2-6,.06-37.9,32.69-82.11,52.32-130.73,62.65-10.14,2.16-20.4,3.76-31.31,5.74,8.63,5,16.82,9.63,24.88,14.45,17.73,10.58,35.1,21.7,50.69,35.33a7.14,7.14,0,0,0,4.47,1.66c16.32,1.62,32.15,5.23,46.71,13,12.74,6.83,23,16.06,26.11,31,3.13,15.09-.53,28.76-10.53,40.43a8.92,8.92,0,0,0-2.18,8.44c3.78,20.4,3.8,40.74-2.74,60.62-9.44,28.64-30.33,44.58-59,50.78-26.37,5.71-52.49,5.33-77.54-6.48-6-2.83-11.52-6.47-17.24-10-1.18,1.31-.74,2.7-.72,3.91a704.9,704.9,0,0,1-4,86.19c-5.76,51.72-23,98.53-58.49,137.5-28.85,31.7-64.89,48.74-107.6,52.25-36.45,3-71.46-3.83-106-14.48-19.74-6.09-39-13.37-55.63-26.07-26.17-19.93-40.84-46.68-46.88-78.61-1.86-9.82-2.28-19.78-2.91-29.78-2.24-.46-3.47,1.18-4.91,2-24.77,14.77-51.46,23-80.35,20.33-56.51-5.15-95.06-35.56-117.29-87-13.73-31.79-17.48-65.23-13.58-99.61,4.47-39.48,19.16-74.63,43.46-106.06,9.54-12.35,17.72-25.76,26.76-38.51,2.24-3.15.08-3.87-1.74-5.16-28.37-20.23-55.34-42.18-79.76-67.07-22.24-22.67-42.26-47-55.18-76.45-10.54-24-11.88-48.57-3.86-73.45C276.1,709,300.62,691.16,334.11,684c8.61-1.84,17.37-2.43,26.67-3.15-2.25-3.51-4.36-6.62-6.29-9.84-10.44-17.36-17.5-36.12-22.37-55.7-.86-3.45-2.13-4.48-5.62-4.45-25.79.19-51.59-.37-77.33,1.9-6.16.54-10.83-3.09-11.48-8.55-.74-6.17,2.47-10.72,9-11.42,8.58-.91,17.24-1.42,25.88-1.59,16.47-.33,32.95-.4,49.43-.35,3.83,0,5.14-.63,4.49-5-3.28-21.81-3.49-43.75-1.87-65.71.47-6.47.62-6.39-5.78-7.28a649,649,0,0,0-98-5.91,21.07,21.07,0,0,1-5-.35,9.87,9.87,0,0,1-7.93-11c.45-5,4.3-8.63,9.79-8.71,9.13-.13,18.27-.17,27.41,0a640.57,640.57,0,0,1,78,6.21c3,.43,4.88.12,5.53-3.53,8.91-49.37,29.95-93.7,56.58-135.69,10.25-16.17,21.28-31.8,32.82-47.06a7.2,7.2,0,0,0,1.64-6.36c-12.93-62.42,1.29-118.26,41-167.83a204.1,204.1,0,0,1,21.18-22.53,29,29,0,0,1,20.83-8c24.27.33,46.73,7.73,68.43,17.76,36,16.64,67.28,40.21,96.48,66.71A14.57,14.57,0,0,0,679,190.81c55.85-1.69,110.92,3.29,164.37,20.74,3.29,1.08,4.17.78,4.38-2.9.57-10.12,1.71-20.17,4.53-30,9-31.21,31.61-48.34,64-49.26,33.91-1,57,15.77,73.59,43.54,8.44,14.1,13.58,29.56,17,45.53,1,4.64,2.28,4.13,5.74,2.4,20.33-10.16,41.43-17.81,64.34-19.77,19.72-1.69,37.11,4,52.66,15.72a10.38,10.38,0,0,0,8.64,2.13c17.07-2.43,34.16-2.83,51,1.52,24,6.2,36.22,20.33,39.61,44.85,4.88,35.2,3.7,70.31-.7,105.44-5.51,44.08-15.17,87.33-26,130.35-1.83,7.27,1.1,14.12,2.1,21.09,4.64,32.52,6.85,65.14,4.82,98-.31,5-.5,10-1.08,14.91-.4,3.36.49,4.57,4,5,35.54,4.77,70.06,13.39,103.11,27.55,3.9,1.67,7.35,3.65,9.67,7.28ZM437.72,286.51c6.83-4.75,13.33-9.12,20.94-11.27,5.69-1.61,10.49.95,12.35,6.28,1.75,5-.35,10.26-5.72,12.14-12.7,4.44-21.65,13.67-29.56,23.7a560.26,560.26,0,0,0-41.92,61.37C372.9,414,356.64,451.11,348.68,491.58c-.9,4.58,0,5.82,4.55,6.64,21.76,3.94,43.24,9.11,64,16.8,6.42,2.38,9.15,7.7,7,13.3-2,5.27-7.66,7.61-13.71,5.38-19.86-7.34-40.42-12-61.1-16.24-3.55-.73-4.52.11-4.8,3.75a283.27,283.27,0,0,0,2,63.22c1,6.85.91,6.74,7.8,6.92q25.18.64,50.37,1.53c6.92.24,11.23,4.54,10.81,10.36-.44,6-5.15,9.47-11.91,9.23-15.79-.55-31.6-.81-47.39-1.44-4-.16-4.31,1.25-3.35,4.56,5.87,20.27,14,39.42,26.56,56.59,2.19,3,3.57,3.41,6.92,1.55,25.79-14.32,49.8-7.42,64.47,18.29,7,12.27,11.13,25.59,13.66,39.39,1.17,6.32,3.06,12.05,6.89,17.35A281.86,281.86,0,0,0,502.75,785a64.2,64.2,0,0,0,14,10.3c35.51,19.61,73,34.44,111.65,46.45C675,856.25,722.53,866.56,770.51,875c55.91,9.89,112,15.06,168.82,8.82,39.16-4.29,76.8-13.83,112-32a241.7,241.7,0,0,0,44.78-29.68c-10.76-5.9-21.29-11.16-32.09-15.85-3-1.32-5.66-3-6.76-6.18-1.34-3.91-.76-7.59,2.28-10.59,3.38-3.32,7.37-3.59,11.53-1.81a404.6,404.6,0,0,1,37.52,18.56c2.21,1.22,3.59,1.36,5.51-.59A253.16,253.16,0,0,0,1155.91,750c1.79-3.24.71-4.16-2.3-5-14.09-3.91-28.27-7.44-42.7-9.94-6.46-1.12-9.7-5.46-8.84-11.57.76-5.4,5.65-8.72,11.87-7.81a312.16,312.16,0,0,1,47.51,11.15c3.53,1.09,5.13.78,6.55-3a303,303,0,0,0,15-53.7c2.44-13.63,2.34-13.49-11.77-14.14-18.12-.83-36.23-1.56-54.36-.11a9.78,9.78,0,0,1-10.41-7.53,10.08,10.08,0,0,1,4.79-11.08c2.26-1.2,4.77-1.24,7.28-1.39,21.64-1.29,43.24-.4,64.81,1.19,3.44.25,4.54-.57,4.77-4.13,1.09-16.94,1.94-33.86,1.26-50.86a546.13,546.13,0,0,0-6-62.54c-1-6.28-3.64-12.3-1.94-19.09,12.7-50.49,24.3-101.2,28.89-153.23,2.45-27.79,2.38-55.47-2.23-83.08-1.81-10.88-7.62-18.1-17.84-22-12.25-4.71-25-5.14-37.85-4.53-3.09.15-3.47,1.14-2,3.92,9.85,18.88,9.43,38,.77,57.16-8.25,18.29-21.6,32.65-36,46.15-3,2.77-2.77,4.16-.19,6.92a140.53,140.53,0,0,1,23,33.05c8.78,17.48,13.88,35.75,9.51,55.41-8.18,36.77-46.2,59.31-83.35,49.4-24.8-6.61-46.5-19.52-67-34.45-3.61-2.63-4.44-1.85-6,1.71-8.29,18.39-19.45,34.71-34.45,48.44-37.59,34.39-103.51,23.87-118-35.44-4.44-18.13-3.94-36.3.24-54.37.87-3.77.08-5-3.76-5.3a103.36,103.36,0,0,1-13.3-2C799.45,403.67,778.18,396.43,760,382c-37-29.35-35.8-85.23,2.65-112.59,23-16.37,49.48-21.15,77.17-20.72,3.59.06,8.74,2,10.38.37,2-2-.7-6.77-.8-10.38-.08-2.68-.92-4.23-3.65-5-7.8-2.31-15.46-5.13-23.3-7.28-47.58-13-96.09-17.51-145.24-15-8.55.45-14.64-1.5-21-7.5-28.91-27.09-60.34-50.79-96.77-67.08-17.84-8-36.28-14-56.11-14.48a10.16,10.16,0,0,0-7.71,2.77c-40.66,38.33-62,84.9-60.13,141.31C435.66,273,436,279.61,437.72,286.51Zm.55,667.1.65,1c1-.41,2.07-.76,3.06-1.24a150.35,150.35,0,0,1,54.47-14.92c39.85-3,74.7,8.85,103.42,36.59,34,32.82,47.18,74.39,47.2,120.57,0,32.27-8.22,62.81-22.8,91.57-1.93,3.81-.8,4.87,2.47,6.39,29.11,13.53,59.74,22.24,91,28.91a832.43,832.43,0,0,0,96.11,14.23c29.66,2.78,59.36,4.65,89.15,4.93,3.16,0,4.71-.57,5.17-4.11a577.82,577.82,0,0,0,4.75-67.65c.54-44-2.51-87.76-7.53-131.43-4.9-42.63-11.87-84.91-20.44-126.94-.74-3.66-2.09-5.08-6.14-5.11a535,535,0,0,1-61.18-4.14c-3-.37-4.4.2-5.5,3.16a159.94,159.94,0,0,1-14.71,30.47c-26.3,41.21-60.93,67.32-112.86,61.92-46.06-4.79-78.58-29-91.12-75.2-5.91-21.77-7.13-43.94-5-66.3.46-4.89-.59-7.22-5.59-8.94a389.18,389.18,0,0,1-43.23-18c-4-1.91-5.65-1-8,2.13C514.49,854,497.17,876.41,480,898.87Q459.07,926.2,438.27,953.61ZM878,278.27c-2.7-.73-4.46-1.23-6.22-1.68-16.19-4.14-32-10-49.34-7.44s-34.34,6.52-48.88,17.12c-24.5,17.87-27.31,54-5.92,75.41,12.26,12.28,27.74,18.59,44,23.46,16.06,4.82,32.6,6.37,49.24,7,4,.15,4.79,1.2,3.6,4.94-1.8,5.7-3.12,11.54-4.65,17.33-4.13,15.62-5.59,31.35-2.39,47.39,9.16,46,55.52,52.82,82.1,31.61,12.35-9.85,21.44-22.16,29-35.82,5.92-10.68,9.64-22.25,13.66-33.68,1.54-4.37,3-4.53,6.17-1.54s7,5.67,10.43,8.53c19.4,16,40.57,29,64.33,37.48,9,3.24,18.24,4.76,27.91,2.79,25.54-5.23,41.48-28,37.3-53.48-2.37-14.47-9.11-27-17.29-38.86a151.65,151.65,0,0,0-24.37-27c-3.06-2.72-2.72-4.42.09-7,5.63-5.18,10.92-10.74,16.4-16.09,10.52-10.25,20.61-20.87,27.63-33.93,4.71-8.76,8.06-18,6.74-28.17-3.36-26-29.49-47.06-55.9-45.56-17.2,1-33.25,6.1-48.94,12.75-12.29,5.22-23.53,12.36-35.06,19-2.84,1.63-4.21,2-4.68-2.05-.55-4.77-1.91-9.44-2.82-14.17-3.76-19.51-8.38-38.77-19.16-55.8-12.3-19.44-28.77-31.91-53.15-31.15-25.45.79-40.3,12.18-46.56,36.89-5,19.72-4,39.61-.28,59.4C872.9,256.48,875.48,266.94,878,278.27ZM354.3,1128.84c.37,11.17.5,18.65,1.43,26.1,3.7,29.66,13.29,57,32.62,80.17,22.69,27.22,52.37,40.58,87.44,40.92,27,.26,51.14-9.65,72.42-25.93,37.79-28.89,61.4-67.34,73.26-113,10.36-39.89,7.74-79.07-11.86-115.82-22.07-41.38-57-63.42-104.22-63.27-29.89.09-56.72,10.92-80.24,29.05C377.6,1023.76,356.2,1073.44,354.3,1128.84Zm218,145.5a150.56,150.56,0,0,0,1.4,19.9c5.7,38.23,24.73,67,60.31,83.44,23,10.65,47.43,17.18,72.36,21.66,25.91,4.66,51.86,5.53,77.74-.42,37.24-8.57,65.31-30.24,86.73-61.2,15.09-21.82,26.2-45.44,32-71.45.79-3.53.63-5-3.65-4.87-5.8.22-11.62-.4-17.44-.57-54-1.58-107.5-6.93-160.47-17.4-36.42-7.2-72.15-16.92-105.66-33.41-3.11-1.53-4-.16-5.32,2-7.83,12.22-16.11,24.34-27.1,33.75-8.85,7.58-11.75,16.28-10.91,27.12A14.83,14.83,0,0,1,572.26,1274.34ZM999.8,1142.28a130.51,130.51,0,0,0,24-2.78c18.31-4.21,33.62-12.68,41.82-30.6,9.13-20,9.06-40.89,3.79-61.48-2.4-9.38-1.62-14.73,6.51-20.55,10.65-7.62,10.82-24.34,1.71-33.69a39.15,39.15,0,0,0-10.47-7.55c-13.41-6.81-27.75-10.08-42.67-10.83-3.68-.19-6.64-1-9.32-3.75-5.17-5.19-11.12-9.5-16.88-14-2.94-2.3-4.51-2.28-7,.89q-30.76,39-62,77.59a12.41,12.41,0,0,0-2.92,10c2.45,21.48,4.33,43,5.24,64.62a7.94,7.94,0,0,0,2.29,5.83C951.37,1132.81,971.9,1142.43,999.8,1142.28ZM363.43,701.15c-9.54.41-18.34,1-26.94,3-22.13,5.21-40.23,16-49.38,37.9-7.95,19-9.27,38.62-2.23,58.35,9.25,25.9,25.75,47.08,43.83,67.23,2.73,3.05,3.66.08,4.9-1.23,34.65-36.59,69-73.49,104.1-109.62,7.35-7.56,10-14.14,7-24.2-4-13.26-7.19-26.67-16.15-37.71-5-6.13-11.19-9.11-19.27-8a35.43,35.43,0,0,0-23,12.63c-2.16,2.59-4.24,3.5-7.67,2.94C373.37,701.64,368,701.52,363.43,701.15Zm244,173.28a162.84,162.84,0,0,0,2.17,27.82c3.09,19.37,9.57,37.15,23,52.06,19.45,21.52,69.08,32.39,99.84,16.66,29.41-15,47.15-39.56,59.47-69.05,1.13-2.7-.29-2.91-2.42-3.28-15.71-2.7-31.43-5.34-47.09-8.34-44.21-8.46-88-18.81-130.8-32.77-2.91-.95-3.49-.07-3.58,2.45C607.91,864.8,607.66,869.61,607.44,874.43ZM513.55,822c-.25-2-2-2.57-3.24-3.54-18.36-14.77-35.07-31.17-49.17-50.08-2.84-3.81-4.22-3.47-7.18-.31Q400.62,824.73,347,881.18c-2.08,2.19-2.09,3.32.16,5.46,21.56,20.63,44.76,39.24,68.94,56.69,2.89,2.08,3.94.62,5.44-1.34q44.94-58.62,89.91-117.2C512.19,823.87,512.85,822.92,513.55,822Zm408.81,189.37c.91-.49,1.28-.58,1.46-.81q26-32.49,52-65c1.37-1.71,1.41-2.7-.54-3.82-2.88-1.65-5.76-3.34-8.49-5.21C950,924.92,931.69,917.37,911,916.3c-4.26-.22-4.61.58-3.78,4.36,2,8.91,3.49,17.91,5.14,26.88C916.18,968.6,919.32,989.78,922.36,1011.33Z" transform="translate(-207.88 -102.11)"/><path d="M1006.11,672c-1.67,23-10.66,41.86-32.38,52.07-19.65,9.24-39.31-1.62-42.28-23.08-3.3-23.77,5.3-43,24.32-57.42,7.18-5.45,15.57-8.44,24.75-7.11,14.54,2.11,24.78,14.55,25.58,30.56C1006.19,668.65,1006.11,670.31,1006.11,672Z" transform="translate(-207.88 -102.11)"/><path d="M497.67,585.89c1.05-18.82,7.53-35,23.76-45.85,20.29-13.51,46.34-1.74,49.11,22.47,2.24,19.54-2.94,37.27-17.29,51.4-9.18,9.05-20.17,13.72-33.1,9.52-12.71-4.12-18.57-14.31-21.35-26.61A35.38,35.38,0,0,1,497.67,585.89Z" transform="translate(-207.88 -102.11)"/><path d="M743.23,747.89c-20.39-.93-38.07-7.39-52.07-22.3-21.8-23.23-13.45-54.67,17.3-62.58,27-6.94,51-.06,69.92,20.61,21.12,23.13,12.22,52.76-17.78,61.68C754.81,747,748.86,747.5,743.23,747.89Zm-13.6-67.21c-10.88,0-15,.75-20,3.09-10.92,5.07-13.43,13.87-6.87,24,10.32,16,36.95,24.43,54.62,17.39,13.16-5.25,16.17-15.16,7.5-26.38A46.92,46.92,0,0,0,729.63,680.68Z" transform="translate(-207.88 -102.11)"/><path d="M955.42,279.29a47.67,47.67,0,0,1,47.74,48c0,26.8-21.33,47.91-48.38,47.88-26.39,0-47.53-21.5-47.52-48.26A47.73,47.73,0,0,1,955.42,279.29Zm27.69,47.79a27.91,27.91,0,1,0-27.74,28A27.89,27.89,0,0,0,983.11,327.08Z" transform="translate(-207.88 -102.11)"/></svg>